<?xml version="1.0" encoding="UTF-8"?>
<svg id="_图层_2" data-name="图层 2" xmlns="http://www.w3.org/2000/svg" viewBox="0 0 101.65 101.65">
  <defs>
    <style>
      .cls-1 {
        fill: #171717;
      }

      .cls-1, .cls-2 {
        stroke-width: 0px;
      }

      .cls-2 {
        fill: none;
      }
    </style>
  </defs>
  <g id="_图层_1-2" data-name="图层 1">
    <rect class="cls-2" width="101.65" height="101.65"/>
    <path class="cls-1" d="M50.83,54c-.67,0-1.34-.21-1.91-.64l-24.14-18.11c-1.59-1.19-2.54-3.09-2.54-5.08v-14.3c0-3.5,2.85-6.35,6.35-6.35h44.47c3.5,0,6.35,2.85,6.35,6.35v14.15c0,1.98-.95,3.87-2.52,5.06l-24.15,18.26c-.57.43-1.24.64-1.92.64ZM28.59,15.88v14.3l22.23,16.67,22.24-16.82v-14.14s-44.47,0-44.47,0Z"/>
    <path class="cls-1" d="M73.06,92.12H28.59c-3.5,0-6.35-2.85-6.35-6.35v-14.29c0-1.99.95-3.89,2.54-5.08l24.14-18.11c1.13-.85,2.69-.85,3.82,0l24.15,18.26c1.58,1.19,2.52,3.09,2.52,5.07v14.15c0,3.5-2.85,6.35-6.35,6.35ZM50.82,54.8l-22.23,16.67v14.29h44.47v-14.15l-22.24-16.81Z"/>
    <path class="cls-1" d="M50.83,69.89c-1.75,0-3.18-1.42-3.18-3.18v-15.88c0-1.75,1.42-3.18,3.18-3.18s3.18,1.42,3.18,3.18v15.88c0,1.75-1.42,3.18-3.18,3.18Z"/>
    <path class="cls-1" d="M71.84,38.12H29.65c-1.75,0-3.18-1.42-3.18-3.18s1.42-3.18,3.18-3.18h42.19c1.75,0,3.18,1.42,3.18,3.18s-1.42,3.18-3.18,3.18Z"/>
    <path class="cls-1" d="M34.91,37.56c2.61-4.84,27.04-4.05,29.3,1.17,1.41,3.27-5.11,9.99-13.99,10.26-10.25.31-17.07-8.16-15.31-11.43Z"/>
  </g>
</svg>