<?xml version="1.0" encoding="UTF-8"?>
<svg id="_图层_2" data-name="图层 2" xmlns="http://www.w3.org/2000/svg" viewBox="0 0 117.5 117.5">
  <defs>
    <style>
      .cls-1 {
        fill: #171717;
      }

      .cls-1, .cls-2 {
        stroke-width: 0px;
      }

      .cls-2 {
        fill: none;
      }
    </style>
  </defs>
  <g id="_图层_1-2" data-name="图层 1">
    <path class="cls-1" d="M43.76,50.42c-6.44,0-11.66,5.22-11.66,11.66s5.22,11.66,11.66,11.66,11.66-5.22,11.66-11.66-5.22-11.66-11.66-11.66ZM43.76,67.08c-2.76,0-5-2.24-5-5s2.24-5,5-5,5,2.24,5,5-2.24,5-5,5ZM73.75,50.42c-6.44,0-11.66,5.22-11.66,11.66s5.22,11.66,11.66,11.66,11.66-5.22,11.66-11.66-5.22-11.66-11.66-11.66ZM73.75,67.08c-2.76,0-5-2.24-5-5s2.24-5,5-5,5,2.24,5,5-2.24,5-5,5ZM58.75,13.77c-23.89,0-43.31,18.68-43.31,41.65,0,14.2,7.61,27.49,19.99,35.1v6.55c0,3.68,2.98,6.66,6.66,6.66h33.32c3.68,0,6.66-2.98,6.66-6.66v-6.55c12.38-7.61,19.99-20.9,19.99-35.1,0-22.96-19.43-41.65-43.31-41.65ZM77.13,85.69c-1.06.59-1.72,1.7-1.72,2.92v8.46h-6.66v-10c0-1.84-1.49-3.33-3.33-3.33s-3.33,1.49-3.33,3.33v10h-6.66v-10c0-1.84-1.49-3.33-3.33-3.33s-3.33,1.49-3.33,3.33v10h-6.66v-8.46c0-1.21-.66-2.33-1.72-2.92-11.27-6.25-18.28-17.85-18.28-30.27,0-19.29,16.44-34.98,36.65-34.98s36.65,15.69,36.65,34.98c0,12.42-7,24.03-18.28,30.27Z"/>
    <path class="cls-2" d="M0,0h117.5v117.5H0V0Z"/>
  </g>
</svg>