<?xml version="1.0" encoding="UTF-8"?>
<svg id="_图层_2" data-name="图层 2" xmlns="http://www.w3.org/2000/svg" viewBox="0 0 93.7 93.7">
  <defs>
    <style>
      .cls-1 {
        fill: #f2f1eb;
      }

      .cls-1, .cls-2 {
        stroke-width: 0px;
      }

      .cls-2 {
        fill: none;
      }
    </style>
  </defs>
  <g id="_图层_1-2" data-name="图层 1">
    <path class="cls-2" d="M0,0h93.7v93.7H0V0Z"/>
    <path class="cls-1" d="M81.99,50.76h-3.9c-2.16,0-3.9-1.75-3.9-3.9s1.75-3.9,3.9-3.9h3.9c2.16,0,3.9,1.75,3.9,3.9s-1.75,3.9-3.9,3.9ZM15.62,50.76h-3.9c-2.16,0-3.9-1.75-3.9-3.9s1.75-3.9,3.9-3.9h3.9c2.16,0,3.9,1.75,3.9,3.9s-1.75,3.9-3.9,3.9ZM69.11,28.5c-1,0-2-.38-2.76-1.14-1.53-1.53-1.53-4,0-5.52l2.73-2.73c1.53-1.53,4-1.53,5.52,0,1.53,1.53,1.53,4,0,5.52l-2.73,2.73c-.76.76-1.76,1.14-2.76,1.14ZM24.6,28.5c-1,0-2-.38-2.76-1.14l-2.73-2.73c-1.53-1.53-1.53-4,0-5.52s4-1.53,5.52,0l2.73,2.73c1.53,1.53,1.53,4,0,5.52-.76.76-1.76,1.14-2.76,1.14ZM46.85,19.52c-2.16,0-3.9-1.75-3.9-3.9v-3.9c0-2.16,1.75-3.9,3.9-3.9s3.9,1.75,3.9,3.9v3.9c0,2.16-1.75,3.9-3.9,3.9Z"/>
    <path class="cls-1" d="M46.85,85.9c-6.46,0-11.71-5.25-11.71-11.71,0-.19.02-.38.04-.57.44-2.99-.54-6.03-2.62-8.2-10.12-7.8-12.13-22.36-4.45-32.61,3.76-5.01,9.23-8.25,15.43-9.14,6.2-.88,12.36.7,17.37,4.45,5.01,3.75,8.25,9.23,9.14,15.43.88,6.19-.7,12.36-4.45,17.37-1.27,1.7-2.77,3.21-4.44,4.5-2.09,2.17-3.07,5.22-2.63,8.2.03.19.04.38.04.57,0,6.46-5.25,11.71-11.71,11.71ZM42.95,74.4c.11,2.05,1.82,3.68,3.9,3.68s3.78-1.63,3.9-3.68c-.69-5.4,1.19-10.87,5.07-14.71.13-.13.26-.24.41-.35,1.18-.89,2.23-1.94,3.12-3.12,2.5-3.34,3.56-7.45,2.97-11.58-.59-4.13-2.75-7.78-6.09-10.28-3.34-2.51-7.46-3.55-11.58-2.97-4.13.59-7.78,2.75-10.29,6.09-5.16,6.89-3.76,16.7,3.13,21.86.14.11.27.22.4.35,3.88,3.84,5.76,9.31,5.07,14.71Z"/>
    <path class="cls-1" d="M55.83,70.28h-17.96c-2.16,0-3.9-1.75-3.9-3.9s1.75-3.9,3.9-3.9h17.96c2.16,0,3.9,1.75,3.9,3.9s-1.75,3.9-3.9,3.9Z"/>
  </g>
</svg>