<?xml version="1.0" encoding="UTF-8"?>
<svg id="_图层_2" data-name="图层 2" xmlns="http://www.w3.org/2000/svg" viewBox="0 0 94.59 94.59">
  <defs>
    <style>
      .cls-1 {
        fill: none;
      }

      .cls-1, .cls-2 {
        stroke-width: 0px;
      }

      .cls-2 {
        fill: #161616;
      }
    </style>
  </defs>
  <g id="_图层_1-2" data-name="图层 1">
    <path class="cls-1" d="M0,0h94.59v94.59H0V0Z"/>
    <path class="cls-2" d="M78.33,81.98H15.76c-3.91,0-7.09-3.18-7.09-7.09v-23.08c0-4.22,3.4-7.65,7.59-7.65h62.07c4.18,0,7.59,3.43,7.59,7.65v22.52c0,4.22-3.4,7.66-7.59,7.66ZM16.26,50.45c-.71,0-1.29.61-1.29,1.35v23.08c0,.44.35.79.79.79h62.57c.71,0,1.29-.61,1.29-1.36v-22.52c0-.75-.58-1.35-1.29-1.35H16.26Z"/>
    <path class="cls-2" d="M35.47,58.33c-1.74,0-3.15-1.41-3.15-3.15v-7.88c0-1.74,1.41-3.15,3.15-3.15s3.15,1.41,3.15,3.15v7.88c0,1.74-1.41,3.15-3.15,3.15Z"/>
    <path class="cls-2" d="M23.65,62.27c-1.74,0-3.15-1.41-3.15-3.15v-11.82c0-1.74,1.41-3.15,3.15-3.15s3.15,1.41,3.15,3.15v11.82c0,1.74-1.41,3.15-3.15,3.15Z"/>
    <path class="cls-2" d="M47.3,62.27c-1.74,0-3.15-1.41-3.15-3.15v-11.82c0-1.74,1.41-3.15,3.15-3.15s3.15,1.41,3.15,3.15v11.82c0,1.74-1.41,3.15-3.15,3.15Z"/>
    <path class="cls-2" d="M70.94,62.27c-1.74,0-3.15-1.41-3.15-3.15v-11.82c0-1.74,1.41-3.15,3.15-3.15s3.15,1.41,3.15,3.15v11.82c0,1.74-1.41,3.15-3.15,3.15Z"/>
    <path class="cls-2" d="M59.12,58.33c-1.74,0-3.15-1.41-3.15-3.15v-7.88c0-1.74,1.41-3.15,3.15-3.15s3.15,1.41,3.15,3.15v7.88c0,1.74-1.41,3.15-3.15,3.15Z"/>
    <path class="cls-2" d="M11.82,30.74c-1.74,0-3.15-1.41-3.15-3.15v-15.76c0-1.74,1.41-3.15,3.15-3.15s3.15,1.41,3.15,3.15v15.76c0,1.74-1.41,3.15-3.15,3.15Z"/>
    <path class="cls-2" d="M82.77,22.86H11.82c-1.74,0-3.15-1.41-3.15-3.15s1.41-3.15,3.15-3.15h70.95c1.74,0,3.15,1.41,3.15,3.15s-1.41,3.15-3.15,3.15Z"/>
    <path class="cls-2" d="M82.77,30.74c-1.74,0-3.15-1.41-3.15-3.15v-15.76c0-1.74,1.41-3.15,3.15-3.15s3.15,1.41,3.15,3.15v15.76c0,1.74-1.41,3.15-3.15,3.15Z"/>
  </g>
</svg>