<?xml version="1.0" encoding="UTF-8"?>
<svg id="_图层_2" data-name="图层 2" xmlns="http://www.w3.org/2000/svg" viewBox="0 0 117.5 117.5">
  <defs>
    <style>
      .cls-1 {
        stroke: #171717;
        stroke-linejoin: round;
        stroke-width: 7px;
      }

      .cls-1, .cls-2 {
        fill: none;
      }

      .cls-2 {
        stroke-width: 0px;
      }
    </style>
  </defs>
  <g id="_图层_1-2" data-name="图层 1">
    <g>
      <path class="cls-1" d="M47.82,90.22c-12.74-12.08-11.58-29.75-11.35-32.69l14.24,10.09,16.79-10.09,11.34,6.97c.22-1.96.34-3.96.34-6.01,0-22.33-13.6-40.43-30.38-40.43s-30.38,18.1-30.38,40.43,13.6,40.43,30.38,40.43c3.09,0,6.06-.62,8.87-1.76-4.85-2.22-8.3-5.47-9.85-6.94Z"/>
      <path class="cls-1" d="M99.07,57.53l-15.15,10.09-16.43-10.09-16.79,10.09-14.24-10.09c-.24,2.94-1.39,20.61,11.35,32.69,2.6,2.46,10.51,9.97,21.5,9.15,9.47-.7,15.55-7.16,18.61-10.41,11.04-11.72,11.25-26.88,11.14-31.44Z"/>
    </g>
    <path class="cls-2" d="M0,0h117.5v117.5H0V0Z"/>
  </g>
</svg>