<?xml version="1.0" encoding="UTF-8"?>
<svg id="_图层_2" data-name="图层 2" xmlns="http://www.w3.org/2000/svg" viewBox="0 0 117.5 117.5">
  <defs>
    <style>
      .cls-1 {
        fill: #171717;
      }

      .cls-1, .cls-2 {
        stroke-width: 0px;
      }

      .cls-2, .cls-3 {
        fill: none;
      }

      .cls-3 {
        stroke: #171717;
        stroke-linecap: round;
        stroke-linejoin: round;
        stroke-width: 6px;
      }
    </style>
  </defs>
  <g id="_图层_1-2" data-name="图层 1">
    <path class="cls-2" d="M19.82,19.82h77.87v77.87H19.82V19.82Z"/>
    <path class="cls-2" d="M0,0h117.5v117.5H0V0Z"/>
    <g>
      <g>
        <path class="cls-1" d="M70.23,58.42c-.87,0-1.73-.33-2.39-.99-1.32-1.32-1.32-3.46,0-4.79l13.54-13.54c1.32-1.32,3.46-1.32,4.79,0s1.32,3.46,0,4.79l-13.54,13.54c-.66.66-1.53.99-2.39.99Z"/>
        <path class="cls-1" d="M94.16,31.11c-13.19-13.19-34.66-13.2-47.85,0-10.33,10.33-12.57,25.72-6.73,38.25l5.04-5.61c-3.2-9.45-1.04-20.34,6.48-27.86,10.56-10.56,27.73-10.55,38.28,0,10.56,10.56,10.56,27.73,0,38.29-1.32,1.32-1.32,3.46,0,4.79.66.66,1.53.99,2.39.99s1.73-.33,2.39-.99c13.2-13.19,13.2-34.66,0-47.86Z"/>
        <path class="cls-1" d="M57.46,59.36h.03s.03.01.03.01l.14.03h.02s.02,0,.02,0l.06.03.08.03.02.02h.02s.05.03.05.03l.08.04.03.02h.02s.04.04.04.04l.06.04.03.03.03.02.03.03.05.04.05.05.03.03.02.03.04.04.05.07.03.04v.02s.03.03.03.03l.05.09.04.06v.02c.16.31.24.65.22,1.02v.02s-.01.08-.01.08v.12s-1.77,11.23-1.77,11.23l8.36,1.31c.92.14,1.54,1.1,1.38,2.13-.05.33-.18.64-.37.9l-.13.15-16.59,18.49c-1.18,1.32-3.13.24-2.85-1.57l1.76-11.23-8.36-1.31c-.92-.14-1.54-1.1-1.38-2.13.05-.33.18-.64.37-.9l.13-.15,16.59-18.49.02-.02.04-.04.07-.06.04-.04h.02s.03-.04.03-.04l.08-.06.05-.04h.02c.22-.16.47-.25.73-.28h.02s.05,0,.05,0h.13s.02,0,.02,0h.07s.11.02.11.02Z"/>
      </g>
      <line class="cls-3" x1="13.45" y1="35.8" x2="30.32" y2="35.8"/>
      <line class="cls-3" x1="17.19" y1="48.27" x2="27.36" y2="48.27"/>
      <line class="cls-3" x1="22.25" y1="60.74" x2="27.36" y2="60.74"/>
    </g>
  </g>
</svg>