<?xml version="1.0" encoding="UTF-8"?>
<svg id="_图层_2" data-name="图层 2" xmlns="http://www.w3.org/2000/svg" viewBox="0 0 117.5 117.5">
  <defs>
    <style>
      .cls-1 {
        fill: #171717;
      }

      .cls-1, .cls-2 {
        stroke-width: 0px;
      }

      .cls-2 {
        fill: none;
      }
    </style>
  </defs>
  <g id="_图层_1-2" data-name="图层 1">
    <path class="cls-2" d="M0,0h117.5v117.5H0V0Z"/>
    <path class="cls-1" d="M101.69,91.27l-8.02-44.06c-.85-4.66-4.9-8.04-9.63-8.04h-8.35c1.67-2.88,2.65-6.22,2.65-9.79,0-10.8-8.79-19.58-19.58-19.58s-19.58,8.79-19.58,19.58c0,3.57.98,6.91,2.65,9.79h-8.35c-4.74,0-8.79,3.38-9.63,8.04l-8.01,44.06c-.11.58-.16,1.16-.16,1.76,0,5.4,4.4,9.79,9.79,9.79h66.61c.59,0,1.18-.05,1.75-.16,5.31-.97,8.84-6.08,7.88-11.39ZM33.46,46.77h0s0-2.71,0-2.71v2.71ZM58.75,19.58c5.4,0,9.79,4.39,9.79,9.79s-4.39,9.79-9.79,9.79-9.79-4.39-9.79-9.79,4.39-9.79,9.79-9.79ZM69.26,59.81c0,2.54-2.06,4.6-4.6,4.6s-4.6-2.06-4.6-4.6,2.06-4.6,4.6-4.6,4.6,2.06,4.6,4.6ZM52.84,55.21c2.54,0,4.6,2.06,4.6,4.6s-2.06,4.6-4.6,4.6-4.6-2.06-4.6-4.6,2.06-4.6,4.6-4.6ZM40.35,67.69c0-2.54,2.06-4.6,4.6-4.6s4.6,2.06,4.6,4.6-2.06,4.6-4.6,4.6-4.6-2.06-4.6-4.6ZM71.4,82.83c-1.45,3.33-5.32,4.85-8.65,3.4-2.57-1.06-5.46-1.06-8.03,0-.81.34-1.67.52-2.55.51-2.41,0-4.63-1.32-5.77-3.44-1.73-3.19-.54-7.18,2.65-8.91,1.34-.75,2.33-1.99,2.75-3.47.69-2.37,2.55-4.23,4.92-4.92,3.83-1.11,7.84,1.09,8.96,4.92.43,1.48,1.42,2.73,2.77,3.47h0c3.03,1.61,4.31,5.28,2.94,8.42ZM72.55,72.29c-2.54,0-4.6-2.06-4.6-4.6s2.06-4.6,4.6-4.6,4.6,2.06,4.6,4.6-2.06,4.6-4.6,4.6Z"/>
  </g>
</svg>